<svg width="619" height="321" viewBox="0 0 619 321" fill="none" xmlns="http://www.w3.org/2000/svg">
<rect x="2" y="2" width="615" height="317" stroke="#0F4B0C" stroke-width="4"/>
<path fill-rule="evenodd" clip-rule="evenodd" d="M31 18H17C15.4087 18 13.8826 18.6321 12.7574 19.7574C11.6321 20.8826 11 22.4087 11 24V36C11 37.5913 11.6321 39.1174 12.7574 40.2426C13.8826 41.3679 15.4087 42 17 42H31C32.5913 42 34.1174 41.3679 35.2426 40.2426C36.3679 39.1174 37 37.5913 37 36V24C37 22.4087 36.3679 20.8826 35.2426 19.7574C34.1174 18.6321 32.5913 18 31 18ZM15 24C15 23.4696 15.2107 22.9609 15.5858 22.5858C15.9609 22.2107 16.4696 22 17 22H31C31.5304 22 32.0391 22.2107 32.4142 22.5858C32.7893 22.9609 33 23.4696 33 24V36C33 36.5304 32.7893 37.0391 32.4142 37.4142C32.0391 37.7893 31.5304 38 31 38H17C16.4696 38 15.9609 37.7893 15.5858 37.4142C15.2107 37.0391 15 36.5304 15 36V24Z" fill="black"/>
<path fill-rule="evenodd" clip-rule="evenodd" d="M41.8676 20.352L34.9316 25.114C34.6666 25.2959 34.4493 25.5391 34.2982 25.8228C34.1471 26.1065 34.0666 26.4225 34.0636 26.744L33.9996 33.174C33.9965 33.5019 34.074 33.8255 34.2254 34.1164C34.3767 34.4072 34.5973 34.6564 34.8676 34.842L41.8676 39.648C42.1679 39.8541 42.5188 39.9744 42.8824 39.9957C43.246 40.0171 43.6086 39.9387 43.9309 39.7691C44.2533 39.5995 44.5232 39.3451 44.7115 39.0333C44.8998 38.7215 44.9995 38.3642 44.9996 38V22C44.9995 21.6357 44.8998 21.2784 44.7115 20.9667C44.5232 20.6549 44.2533 20.4005 43.9309 20.2309C43.6086 20.0612 43.246 19.9829 42.8824 20.0042C42.5188 20.0256 42.1679 20.1458 41.8676 20.352ZM40.9996 34.2L38.0096 32.148L38.0536 27.822L40.9996 25.8V34.2Z" fill="black"/>
<path d="M10.5858 15.414C10.2215 15.0368 10.0199 14.5316 10.0245 14.0072C10.029 13.4828 10.2394 12.9812 10.6102 12.6104C10.981 12.2395 11.4826 12.0292 12.007 12.0246C12.5314 12.0201 13.0366 12.2217 13.4138 12.586L45.4138 44.586C45.7782 44.9632 45.9797 45.4684 45.9752 45.9928C45.9706 46.5172 45.7603 47.0188 45.3895 47.3896C45.0187 47.7604 44.517 47.9708 43.9926 47.9753C43.4682 47.9799 42.963 47.7783 42.5858 47.414L10.5858 15.414Z" fill="black"/>
<path d="M101.369 42.1306L95.9859 36.7473C97.721 34.5375 98.6649 31.8096 98.6665 29H95.4998C95.4977 30.9701 94.8781 32.8899 93.728 34.4894L91.4338 32.1936C92.0193 31.231 92.3303 30.1266 92.3331 29V19.5C92.3331 15.9898 89.5069 13.1334 86.033 13.1334C85.9222 13.1334 85.8119 13.1466 85.7021 13.173C84.0764 13.2518 82.5433 13.9526 81.4198 15.1302C80.2964 16.3079 79.6686 17.8724 79.6665 19.5V20.4278L72.8692 13.6306L70.6304 15.8694L99.1304 44.3694L101.369 42.1306ZM76.4998 29H73.3331C73.3331 35.4473 78.1781 40.7737 84.4165 41.5574V44.8333H87.5831V41.5574C88.8082 41.3997 90.0036 41.0636 91.1314 40.5599L88.6788 38.1089C87.809 38.3665 86.9069 38.4982 85.9998 38.5C80.7605 38.5 76.4998 34.2393 76.4998 29Z" fill="black"/>
<path d="M79.6777 29.1061C79.7062 30.7458 80.3703 32.3104 81.5299 33.4701C82.6896 34.6297 84.2542 35.2938 85.8939 35.3222L79.6777 29.1061Z" fill="black"/>
<g clip-path="url(#clip0_33_691)">
<path d="M269.533 139.8H279.667V129.667H269.533V139.8ZM330.333 139.8H340.467V129.667H330.333V139.8ZM331.347 167.16C328.279 171.25 324.301 174.57 319.728 176.856C315.155 179.143 310.113 180.333 305 180.333C299.887 180.333 294.845 179.143 290.272 176.856C285.699 174.57 281.721 171.25 278.653 167.16L270.547 173.24C287.773 196.212 322.227 196.212 339.453 173.24L331.347 167.16ZM239.133 129.667V104.333H229V129.667H239.133ZM254.333 89.1333H279.667V79H254.333V89.1333ZM239.133 104.333C239.133 100.302 240.735 96.4359 243.585 93.5853C246.436 90.7348 250.302 89.1333 254.333 89.1333V79C247.615 79 241.171 81.669 236.42 86.42C231.669 91.1709 229 97.6145 229 104.333H239.133ZM229 180.333V205.667H239.133V180.333H229ZM254.333 231H279.667V220.867H254.333V231ZM229 205.667C229 212.385 231.669 218.829 236.42 223.58C241.171 228.331 247.615 231 254.333 231V220.867C250.302 220.867 246.436 219.265 243.585 216.415C240.735 213.564 239.133 209.698 239.133 205.667H229ZM330.333 89.1333H355.667V79H330.333V89.1333ZM370.867 104.333V129.667H381V104.333H370.867ZM355.667 89.1333C359.698 89.1333 363.564 90.7348 366.415 93.5853C369.265 96.4359 370.867 100.302 370.867 104.333H381C381 97.6145 378.331 91.1709 373.58 86.42C368.829 81.669 362.385 79 355.667 79V89.1333ZM330.333 231H355.667V220.867H330.333V231ZM381 205.667V180.333H370.867V205.667H381ZM355.667 231C362.385 231 368.829 228.331 373.58 223.58C378.331 218.829 381 212.385 381 205.667H370.867C370.867 209.698 369.265 213.564 366.415 216.415C363.564 219.265 359.698 220.867 355.667 220.867V231Z" fill="black"/>
</g>
<defs>
<clipPath id="clip0_33_691">
<rect width="152" height="152" fill="white" transform="translate(229 79)"/>
</clipPath>
</defs>
</svg>
