<svg width="33" height="37" viewBox="0 0 33 37" fill="none" xmlns="http://www.w3.org/2000/svg">
<g clip-path="url(#clip0_32_353)">
<path d="M16.1875 16C18.6408 16 20.9935 15.1571 22.7282 13.6569C24.4629 12.1566 25.4375 10.1217 25.4375 8C25.4375 5.87827 24.4629 3.84344 22.7282 2.34315C20.9935 0.842855 18.6408 0 16.1875 0C13.7342 0 11.3815 0.842855 9.64676 2.34315C7.91205 3.84344 6.9375 5.87827 6.9375 8C6.9375 10.1217 7.91205 12.1566 9.64676 13.6569C11.3815 15.1571 13.7342 16 16.1875 16ZM9.25 19.45C3.90234 20.8063 0 25.0812 0 30.1437C0 31.1687 0.961133 32 2.14629 32H30.2287C31.4139 32 32.375 31.1687 32.375 30.1437C32.375 25.0812 28.4727 20.8063 23.125 19.45V22.625C25.1195 23.0688 26.5938 24.6375 26.5938 26.5V29C26.5938 29.55 26.0734 30 25.4375 30H24.2812C23.6453 30 23.125 29.55 23.125 29C23.125 28.45 23.6453 28 24.2812 28V26.5C24.2812 25.3937 23.2479 24.5 21.9688 24.5C20.6896 24.5 19.6562 25.3937 19.6562 26.5V28C20.2922 28 20.8125 28.45 20.8125 29C20.8125 29.55 20.2922 30 19.6562 30H18.5C17.8641 30 17.3438 29.55 17.3438 29V26.5C17.3438 24.6375 18.818 23.0688 20.8125 22.625V19.0562C20.3789 19.0187 19.9381 19 19.49 19H12.885C12.4369 19 11.9961 19.0187 11.5625 19.0562V23.1437C13.2318 23.575 14.4531 24.9125 14.4531 26.5C14.4531 28.4312 12.6393 30 10.4062 30C8.17324 30 6.35938 28.4312 6.35938 26.5C6.35938 24.9125 7.58066 23.575 9.25 23.1437V19.45ZM10.4062 28C10.8662 28 11.3074 27.842 11.6326 27.5607C11.9579 27.2794 12.1406 26.8978 12.1406 26.5C12.1406 26.1022 11.9579 25.7206 11.6326 25.4393C11.3074 25.158 10.8662 25 10.4062 25C9.94627 25 9.50512 25.158 9.17986 25.4393C8.8546 25.7206 8.67188 26.1022 8.67188 26.5C8.67188 26.8978 8.8546 27.2794 9.17986 27.5607C9.50512 27.842 9.94627 28 10.4062 28Z" fill="black"/>
</g>
<defs>
<clipPath id="clip0_32_353">
<rect width="32.375" height="37" fill="white"/>
</clipPath>
</defs>
</svg>
