<svg width="33" height="32" viewBox="0 0 33 32" fill="none" xmlns="http://www.w3.org/2000/svg">
<path d="M16.1352 0C18.2721 0 20.3214 0.842854 21.8324 2.34315C23.3433 3.84344 24.1922 5.87827 24.1922 8C24.1922 10.1217 23.3433 12.1566 21.8324 13.6569C20.3214 15.1571 18.2721 16 16.1352 16C13.9984 16 11.9491 15.1571 10.4381 13.6569C8.92715 12.1566 8.0783 10.1217 8.0783 8C8.0783 5.87827 8.92715 3.84344 10.4381 2.34315C11.9491 0.842854 13.9984 0 16.1352 0ZM16.1352 20C25.0382 20 32.2491 23.58 32.2491 28V32H0.0213623V28C0.0213623 23.58 7.23232 20 16.1352 20Z" fill="black"/>
</svg>
