<svg width="32" height="32" viewBox="0 0 32 32" fill="none" xmlns="http://www.w3.org/2000/svg">
<g clip-path="url(#clip0_32_341)">
<path d="M6.66667 32.0001C6.32 32.0001 6 31.8668 5.73333 31.6268L0.4 26.4801C0.153879 26.2197 0.0115939 25.8782 0 25.5201L0 6.48011C0 6.13344 0.16 5.78678 0.4 5.52011L5.73333 0.373443C6.13333 0.000109395 6.69333 -0.106557 7.2 0.106776C7.68 0.320109 8 0.800109 8 1.33344V30.6668C8 31.2001 7.68 31.6801 7.2 31.8934C7.01333 31.9734 6.85333 32.0001 6.66667 32.0001ZM25.3333 22.6668C25.1733 22.6668 24.9867 22.6401 24.8267 22.5601C24.5832 22.4601 24.3747 22.2902 24.2276 22.0719C24.0805 21.8536 24.0013 21.5967 24 21.3334L23.9733 10.5068C23.9733 9.97344 24.2933 9.46678 24.8 9.28011C25.3067 9.06678 25.8667 9.20011 26.24 9.57344L30.6933 14.1068C31.7067 15.1468 31.7067 16.8268 30.6667 17.8668L26.2667 22.2668C26.1476 22.3949 26.0031 22.4966 25.8423 22.5655C25.6816 22.6344 25.5082 22.6689 25.3333 22.6668Z" fill="black"/>
<path d="M6.66669 6.66663H16C16.7467 6.66663 17.3334 7.25329 17.3334 7.99996V10.6666M6.66669 25.3333H16C16.7467 25.3333 17.3334 24.7466 17.3334 24V21.3333M29.3334 16H13.3334" stroke="black" stroke-linecap="round"/>
</g>
<defs>
<clipPath id="clip0_32_341">
<rect width="32" height="32" fill="white"/>
</clipPath>
</defs>
</svg>
